<svg xmlns="http://www.w3.org/2000/svg" xmlns:xlink="http://www.w3.org/1999/xlink" id="exOE9pQ4uXa1" viewBox="0 0 300 300" shape-rendering="geometricPrecision" text-rendering="geometricPrecision"><ellipse rx="69.152047" ry="69.152047" transform="matrix(1.365174 0 0 1.365174 205.595423 94.404577)" fill="#ffa32e" stroke-width="0"/><ellipse rx="69.152047" ry="69.152047" transform="matrix(1.365174 0 0 1.365174 94.404577 94.404577)" fill="#00c358" stroke-width="0"/><ellipse rx="69.152047" ry="69.152047" transform="matrix(1.365174 0 0 1.365174 205.595423 205.595423)" fill="#f40f02" stroke-width="0"/><ellipse rx="69.152047" ry="69.152047" transform="matrix(1.365174 0 0 1.365174 94.404577 205.595423)" fill="#5050ff" stroke-width="0"/><g><path d="M17.516238,149.999999C70.512573,85.452347,130.386504,114.758837,150,129.663835l-.000001,20.336164h-132.483761Z" transform="translate(.000001 0.000001)" fill="#fff" stroke="#fff" stroke-width="0.6"/><path d="M17.516238,149.999999C70.512573,85.452347,130.386504,114.758837,150,129.663835l-.000001,20.336164h-132.483761Z" transform="matrix(1 0 0-1 0 299.999999)" fill="#fff" stroke="#fff" stroke-width="0.6"/></g><g transform="matrix(-1 0 0 1 300.000002 0)"><path d="M17.516238,149.999999C70.512573,85.452347,130.386504,114.758837,150,129.663835l-.000001,20.336164h-132.483761Z" transform="translate(.000001 0.000001)" fill="#fff" stroke="#fff" stroke-width="0.6"/><path d="M17.516238,149.999999C70.512573,85.452347,130.386504,114.758837,150,129.663835l-.000001,20.336164h-132.483761Z" transform="matrix(1 0 0-1 0 299.999999)" fill="#fff" stroke="#fff" stroke-width="0.6"/></g><g transform="matrix(0 1-1 0 301.246312-.000002)"><path d="M17.516238,149.999999C70.512573,85.452347,130.386504,114.758837,150,129.663835l-.000001,20.336164h-132.483761Z" transform="translate(.000001 0.000001)" fill="#fff" stroke="#fff" stroke-width="0.6"/><path d="M17.516238,149.999999C70.512573,85.452347,130.386504,114.758837,150,129.663835l-.000001,20.336164h-132.483761Z" transform="matrix(1 0 0-1 0 299.999999)" fill="#fff" stroke="#fff" stroke-width="0.6"/></g><g transform="matrix(0-1 1 0 1.246312 300)"><path d="M17.516238,149.999999C70.512573,85.452347,130.386504,114.758837,150,129.663835l-.000001,20.336164h-132.483761Z" transform="translate(.000001 0.000001)" fill="#fff" stroke="#fff" stroke-width="0.6"/><path d="M17.516238,149.999999C70.512573,85.452347,130.386504,114.758837,150,129.663835l-.000001,20.336164h-132.483761Z" transform="matrix(1 0 0-1 0 299.999999)" fill="#fff" stroke="#fff" stroke-width="0.6"/></g></svg>